<svg width="30" height="30" viewBox="0 0 30 30" fill="none" xmlns="http://www.w3.org/2000/svg">
<path fill-rule="evenodd" clip-rule="evenodd" d="M26 1H4V3H2V5H0V25H2V27H4V29H26V27H28V25H30V5H28V3H26V1ZM26 3V5H28V25H26V27H4V25H2V5H4V3H26Z" fill="#0DB7A2"/>
<path d="M5 22V9H13.5556V11.3636H16V19.6364H13.5556V22H5ZM7.44444 14.2H13.4456V11.3636H7.44444V14.2ZM7.44444 19.6364H13.4456V16.8H7.44444V19.6364Z" fill="#0DB7A2"/>
<path d="M18 8H24V10H18V8Z" fill="#0DB7A2"/>
<path d="M18 12H23V14H18V12Z" fill="#0DB7A2"/>
<path d="M20 14V19H18V14H20Z" fill="#0DB7A2"/>
<path d="M25 14V18H23V14H25Z" fill="#0DB7A2"/>
<path d="M23 18H18V16L23 16V18Z" fill="#0DB7A2"/>
<path d="M18 20V16L20 16V20H18Z" fill="#0DB7A2"/>
<path d="M18 20H25V22H18V20Z" fill="#0DB7A2"/>
</svg>
