<svg fill="none" height="32" viewBox="0 0 43 32" width="43" xmlns="http://www.w3.org/2000/svg">
    <path clip-rule="evenodd"
          d="m7.16667 0h2.38889v4.77778h-2.38889zm-2.38889 7.16667v-2.38889h2.38889v2.38889zm0 16.72223h-4.77778v-2.3889h2.38889v-2.3889h-2.38889v-2.3889h2.38889v-2.3889h-2.38889v-2.3889h2.38889v-2.38884-2.38889h2.38889v2.38889h2.38889v2.38884h-2.38889v2.3889h2.38889v2.3889h-2.38889v2.3889h2.38889v2.3889h-2.38889zm2.38889 4.7778h-2.38889v-4.7778h2.38889zm28.66663 0v2.3889h-28.66663v-2.3889zm2.3889-4.7778v4.7778h-2.3889v-4.7778zm0-11.9445v2.3889h-2.3889v2.3889h2.3889v2.3889h-2.3889v2.3889h2.3889v2.3889h4.7778v-2.3889h-2.3889v-2.3889h2.3889v-2.3889h-2.3889v-2.3889h2.3889v-2.3889h-2.3889v-2.38884-2.38889h-2.3889v-2.38889h-2.3889v-4.77778h-2.3889v4.77778h-2.3888v2.38889h-19.1112v-2.38889h-2.38884v2.38889h2.38884v2.38889h19.1112v-2.38889h2.3888v-2.38889h2.3889v2.38889h2.3889v2.38889h-2.3889v2.38884zm-17.9166 10.75h-5.9723v2.3889h5.9723zm2.3888 0h-2.3888v-2.3888h2.3888zm0 0v2.3889h5.9723v-2.3889zm-3.5833-7.1666h-2.3889v-2.3889h-2.3889v2.3889 2.3889h4.7778zm7.1667 0h2.3889v2.3889h-4.7778v-2.3889-2.3889h2.3889z"
          fill="#e8bdff" fill-rule="evenodd"/>
</svg>