<svg width="136" height="70" viewBox="0 0 136 70" fill="none" xmlns="http://www.w3.org/2000/svg">
<path d="M125.118 65.3328V63.0017H122.399V60.668H119.681V58.3343V56.0006H116.959V53.667V51.3333V48.9996V46.6685V44.3322V42.0012V39.6675H114.241V42.0012H111.52V44.3322H108.798H106.08H103.359H100.64H97.9189H95.2003V42.0012H92.4791V39.6675H89.7605V37.3338H87.0393V39.6675H84.3181V42.0012V44.3322H81.5995V46.6685H78.8783V48.9996H76.1597V51.3333H73.4411H70.7199V53.667H67.9987H65.2775H62.5589H59.8377H57.1191H54.4005H51.6819H48.9582V51.3333H46.2395H43.5209V48.9996H40.7997V46.6685H38.0811V44.3322H35.36H32.6413V46.6685H29.9202V48.9996H27.199H24.4804H21.7592H19.0406H16.3194H13.6008V46.6685H10.8821V44.3322H8.16097V42.0012V39.6675H5.4398V37.3338V35.0001V32.6664V30.3328H2.72118V32.6664V35.0001V37.3338H0V39.6675V42.0012V44.3322V46.6685V48.9996V51.3333H2.72118V53.667V56.0006V58.3343H5.4398V60.668V63.0017H8.16097V65.3328H10.8821V67.669H13.6008H16.3194V70.0001H19.0406H21.7592H24.4804H27.199H29.9202H32.6413H35.36H38.0811H40.7997H43.5209H46.2395H48.9582H51.6819H54.4005H57.1191H59.8377H62.5589H65.2775H67.9987H70.7199H73.4411H76.1597H78.8783H81.5995H84.3181H87.0393H89.7605H92.4791H95.2003H97.9189H100.64H103.359H106.08H108.798H111.52H114.241H116.959H119.681H122.399H125.118V67.669H127.836V65.3328H125.118Z" fill="#C1E5F5"/>
<path d="M133.279 44.3321V42.001V39.6674H130.56V37.3337H127.837V35H125.118V32.6663H122.399H119.681H116.96V30.3326V27.999V25.6653H114.241V23.3316V21.0005V18.6643H111.52V16.3332H108.799V13.9995H106.08V11.6658H103.359V9.33213H100.64H97.919H95.2004H92.4792H89.7606H87.0394H84.3183H81.5996V11.6658H78.8785V9.33213V7.00103H76.1598V4.66478H73.4412H70.72V2.3311H67.9989V0H65.2777H62.5591H59.8379H57.1193H54.4007H51.682V2.3311H48.9583H46.2397V4.66478H43.5211V7.00103H40.7999V9.33213H38.0813V11.6658H35.3601V13.9995V16.3332V18.6643H32.6415H29.9203H27.1991H24.4805H21.7593H19.0407H16.3195V21.0005H13.6009H10.8823V23.3316H8.16112V25.6653H5.43994V27.999V30.3326V32.6663V35V37.3337V39.6674H8.16112V42.001V44.3321H10.8823V46.6684H13.6009V48.9995H16.3195H19.0407H21.7593H24.4805H27.1991H29.9203V46.6684H32.6415V44.3321H35.3601H38.0813V46.6684H40.7999V48.9995H43.5211V51.3332H46.2397H48.9583V53.6668H51.682H54.4007H57.1193H59.8379H62.5591H65.2777H67.9989H70.72V51.3332H73.4412H76.1598V48.9995H78.8785V46.6684H81.5996V44.3321H84.3183V42.001V39.6674H87.0394V37.3337H89.7606V39.6674H92.4792V42.001H95.2004V44.3321H97.919H100.64H103.359H106.08H108.799H111.52V42.001H114.241V39.6674H116.96V42.001V44.3321V46.6684V48.9995V51.3332V53.6668V56.0005H119.681V58.3342V60.6679H122.399V63.0016H125.118V65.3326H127.837V67.6689H130.56V65.3326V63.0016H133.279V60.6679H136V58.3342V56.0005V53.6668V51.3332V48.9995V46.6684V44.3321H133.279Z" fill="white"/>
</svg>
