<svg width="59" height="55" viewBox="0 0 59 55" fill="none" xmlns="http://www.w3.org/2000/svg">
<path d="M49.1684 47.6697H47.2007V49.5005H49.1684V47.6697Z" fill="#F2A317"/>
<path d="M51.1362 42.1699H49.1685V44.0007H51.1362V42.1699Z" fill="#F2A317"/>
<path d="M11.8027 23.8367H9.83496V25.6711H11.8027V23.8367Z" fill="#FAF1CE"/>
<path d="M57.0361 18.3333H55.0683H53.1005H51.1328V20.1677V22.0021V23.8365V25.6673V27.5017V29.3325V31.1669V33.0014V34.8358V36.6666V38.501H49.1687V40.3318V42.1698H51.1328V44.0006H49.1687V42.1698H47.2009V44.0006H45.2332V45.8351H43.2654V47.6695V49.5003H41.3049H39.3371V51.3347H37.3694V53.1691H35.4016H33.4375V54.9999H35.4016H37.3694H39.3371H41.3049V53.1691H43.2654H45.2332V51.3347H47.2009V49.5003V47.6695H49.1687V49.5003H51.1328V47.6695V45.8351H53.1005V44.0006H55.0683V42.1698V40.3318H57.0361V38.501V36.6666H59.0002V34.8358V33.0014V31.1669V29.3325V27.5017V25.6673V23.8365V22.0021V20.1677V18.3333H57.0361Z" fill="#F2A317"/>
<path d="M37.3694 53.1221V53.1691H33.4375V54.9999H41.3049V53.1691H45.2332V53.1221H37.3694Z" fill="#1D1D1B"/>
<path d="M49.1684 12.8337H47.2007V14.6645H49.1684V12.8337Z" fill="white"/>
<path d="M47.2007 18.3334V12.8337H45.233V11.0029H43.2652V9.16853H41.312V7.33411H39.3442V5.49969H37.3765V3.66889H33.4373V1.83447H17.7026V3.66889H13.7707V5.49969H11.7993V7.33411H9.83517V9.16853H7.86741V11.0029H5.89966V14.6682H3.93553V18.3334H1.96777V36.6667H3.93553V40.3356H5.89966V44.0008H7.86741V45.8352H9.83517V47.6696H11.7993V49.5004H13.7707V51.3348H17.7026V53.1873H33.4373V51.3529H37.3692V49.5185H39.337V47.6877H41.312V45.8533H43.2725V44.0189H45.2402V42.1881H47.208V38.5011H49.1758V18.3334H47.2007ZM9.83517 20.1678V16.5026H11.7993V14.6682H13.7707V12.8337H15.7384V11.0029H17.7062V9.16853H33.4373V11.0029H35.4015V12.8337H37.3692V14.6682H39.337V16.5026H41.312V20.1678H43.2725V34.8359H41.312V38.5011H39.3442V40.3356H37.3765V42.17H35.4015V44.0008H33.4373V45.8352H17.7026V44.0008H15.7348V42.17H13.7707V40.3356H11.7993V38.5011H9.83517V34.8359H7.86741V20.1678H9.83517Z" fill="#FDCD00"/>
<path d="M13.7671 18.3334H11.7993V20.1678V22.0022V23.8366V25.6674V27.5018V29.3326V31.1671V33.0015H13.7671V34.8359V36.6667H15.7348V38.5011H17.7026V40.3319H19.6667H21.6345V42.17H23.6022H25.57H27.5341H29.5019H31.4696V40.3319H33.4374H35.4015V38.5011H37.3692V36.6667H39.337V34.8359V33.0015H41.3047V31.1671V29.3326V27.5018V25.6674V23.8366V22.0022H39.337V20.1678V18.3334V16.4989H37.3692V14.6681H35.4015V12.8337H33.4374H31.4696V11.0029H29.5019H27.5341H25.57H23.6022H21.6345H19.6667V12.8337H17.7026H15.7348V14.6681H13.7671V16.4989V18.3334Z" fill="#FDCD00"/>
<path d="M55.0681 12.8337V11.0029V9.16846H53.1003V11.0029H51.1326H49.1685V12.8337V14.6681V16.4989H51.1326V14.6681H53.1003H55.0681V16.4989V18.3333H57.0359V16.4989V14.6681V12.8337H55.0681Z" fill="#F2A317"/>
<path d="M51.1328 7.33406V5.50326H49.1687H47.2009V3.66884H45.2332V1.83442H43.2654H41.3049V0H39.3371H37.3694H35.4016H33.4375V1.83442H35.4016H37.3694V3.66884H39.3371V5.50326H41.3049V7.33406H43.2654V9.16848H45.2332H47.2009H49.1687H51.1328H53.1005V7.33406H51.1328Z" fill="#F2A317"/>
<path d="M55.0681 12.8337V11.0029V9.16846H53.1003V11.0029H51.1326H49.1685V12.8337V14.6681V16.4989H51.1326V14.6681H53.1003H55.0681V16.4989V18.3333H57.0359V16.4989V14.6681V12.8337H55.0681Z" fill="#F2A317"/>
<path d="M55.0683 12.8337V11.0029V9.16846H53.1006V11.0029V12.8337H55.0683V14.6681V16.4989V18.3333H57.0361V16.4989V14.6681V12.8337H55.0683Z" fill="#1D1D1B"/>
<path d="M47.2007 3.66895H45.2329V5.50336H47.2007V3.66895Z" fill="#1D1D1B"/>
<path d="M47.2007 7.33397H49.1684H51.1326V5.50317H49.1684H47.2007V7.33397Z" fill="#1D1D1B"/>
<path d="M43.2652 3.66889H45.2329V1.83447H43.2652H41.3047V3.66889H43.2652Z" fill="#1D1D1B"/>
<path d="M53.1006 7.33398H51.1328V9.16478H53.1006V7.33398Z" fill="#1D1D1B"/>
<path d="M35.4016 1.83442H37.3694H39.3371H41.3049V0H39.3371H37.3694H35.4016H33.4375V1.83442H35.4016Z" fill="#1D1D1B"/>
<path d="M49.1684 42.1699H47.2007V44.0007H49.1684V42.1699Z" fill="#1D1D1B"/>
<path d="M57.0361 18.3333H55.0684H57.0361V20.1677V22.0021V23.8365V25.6673V27.5017V29.3325V31.1669V33.0014V34.8358V36.6666H59.0002V34.8358V33.0014V31.1669V29.3325V27.5017V25.6673V23.8365V22.0021V20.1677V18.3333H57.0361Z" fill="#1D1D1B"/>
<path d="M49.1685 45.8352V47.6696V49.5004H51.1326V47.6696V45.8352H49.1685Z" fill="#1D1D1B"/>
<path d="M53.1006 44.0007H51.1328V45.8351H53.1006V44.0007Z" fill="#1D1D1B"/>
<path d="M55.0683 36.6667V38.5012V40.332H53.1006V42.17V44.0008H55.0683V42.17V40.332H57.0361V38.5012V36.6667H55.0683Z" fill="#1D1D1B"/>
<path d="M41.3047 53.1692H39.3369V55H41.3047V53.1692Z" fill="#1D1D1B"/>
<path d="M47.2007 49.5005V47.6697H45.2329V49.5005V51.3349H47.2007V49.5005Z" fill="#1D1D1B"/>
<path d="M45.2329 51.3347H43.2651V53.1691H45.2329V51.3347Z" fill="#1D1D1B"/>
<path d="M33.4374 51.3347V53.1691H31.4697H29.5019H27.5342H25.57H23.6023H21.6345H19.6668H17.7026V54.9999H19.6668H21.6345H23.6023H25.57H27.5342H29.5019H31.4697H33.4374V53.1691H35.4016H37.3693V51.3347H35.4016H33.4374Z" fill="#1D1D1B"/>
<path d="M39.3369 49.5002H37.3691V51.3347H39.3369V49.5002Z" fill="#1D1D1B"/>
<path d="M41.3047 47.6696H39.3369V49.5004H41.3047H43.2652V47.6696V45.8352H41.3047V47.6696Z" fill="#1D1D1B"/>
<path d="M45.2329 44.0007H43.2651V45.8351H45.2329V44.0007Z" fill="#1D1D1B"/>
<path d="M47.2007 42.1699H45.2329V44.0007H47.2007V42.1699Z" fill="#1D1D1B"/>
<path d="M47.2007 40.3318V42.1698H49.1684V40.3318V38.501H47.2007V40.3318Z" fill="#1D1D1B"/>
<path d="M49.1685 20.1677V22.0021V23.8366V25.6674V27.5018V29.3326V31.167V33.0014V34.8358V36.6666V38.5011H51.1326V36.6666V34.8358V33.0014V31.167V29.3326V27.5018V25.6674V23.8366V22.0021V20.1677H49.1685Z" fill="#1D1D1B"/>
<path d="M47.2007 16.499V18.3334H49.1684V16.499V14.6682H47.2007V16.499Z" fill="#1D1D1B"/>
<path d="M47.2007 11.0029H45.2329V12.8373H47.2007V11.0029Z" fill="#1D1D1B"/>
<path d="M37.3691 40.3354H35.4014V42.1699H37.3691V40.3354Z" fill="#1D1D1B"/>
<path d="M39.3369 20.1679V22.0023H41.3047V23.8367V25.6675V27.5019V29.3327V31.1671V33.0016H39.3369V34.836V36.6668H37.3691V38.5012V40.332H39.3369V38.5012H41.3047V36.6668V34.836H43.2652V33.0016V31.1671V29.3327V27.5019V25.6675V23.8367V22.0023V20.1679H41.3047V18.3334V16.499H39.3369V18.3334V20.1679Z" fill="#1D1D1B"/>
<path d="M39.3369 14.6682H37.3691V16.5026H39.3369V14.6682Z" fill="#1D1D1B"/>
<path d="M37.3691 12.8337H35.4014V14.6645H37.3691V12.8337Z" fill="#1D1D1B"/>
<path d="M45.2329 9.16846H43.2651V11.0029H45.2329V9.16846Z" fill="#1D1D1B"/>
<path d="M43.2688 7.33398H41.3047V9.16478H43.2688V7.33398Z" fill="#1D1D1B"/>
<path d="M41.3047 5.49976H39.3369V7.33418H41.3047V5.49976Z" fill="#1D1D1B"/>
<path d="M39.3369 3.66895H37.3691V5.50336H39.3369V3.66895Z" fill="#1D1D1B"/>
<path d="M33.4375 3.66889H35.4016H37.3694V1.83447H35.4016H33.4375V3.66889Z" fill="#1D1D1B"/>
<path d="M15.7348 51.3347H13.7671V53.1691H15.7348H17.7026V51.3347H15.7348Z" fill="#1D1D1B"/>
<path d="M13.7671 49.5002H11.7993V51.3347H13.7671V49.5002Z" fill="#1D1D1B"/>
<path d="M9.83494 47.6696V45.8352H7.86719V47.6696V49.5004H9.83494H11.7991V47.6696H9.83494Z" fill="#1D1D1B"/>
<path d="M7.86717 44.0007H5.89941V45.8351H7.86717V44.0007Z" fill="#1D1D1B"/>
<path d="M19.6667 45.8351H21.6345H23.6023H25.57H27.5341H29.5019H31.4696H33.4374V44.0007H35.4015V42.1699H33.4374H31.4696V44.0007H29.5019H27.5341H25.57H23.6023H21.6345H19.6667V42.1699H17.7026H15.7349V44.0007H17.7026V45.8351H19.6667Z" fill="#1D1D1B"/>
<path d="M15.7348 40.3354H13.7671V42.1699H15.7348V40.3354Z" fill="#1D1D1B"/>
<path d="M5.89968 40.3318H3.93555V42.1698V44.0006H5.89968V42.1698V40.3318Z" fill="#1D1D1B"/>
<path d="M3.93553 36.6667H1.96777V38.5012V40.332H3.93553V38.5012V36.6667Z" fill="#1D1D1B"/>
<path d="M1.96775 33.0014V31.167V29.3326V27.5018V25.6674V23.8366V22.0021V20.1677H0V22.0021V23.8366V25.6674V27.5018V29.3326V31.167V33.0014V34.8358H1.96775V33.0014Z" fill="#1D1D1B"/>
<path d="M13.7668 36.6668H11.7991V34.836V33.0015H9.83494V31.1671V29.3327V27.5019V25.6675V23.8367V22.0023H11.7991V20.1679V18.3334H13.7668V16.499V14.6682H11.7991V16.499H9.83494V18.3334V20.1679H7.86719V22.0023V23.8367V25.6675V27.5019V29.3327V31.1671V33.0015V34.836H9.83494V36.6668V38.5012H11.7991V40.332H13.7668V38.5012V36.6668Z" fill="#1D1D1B"/>
<path d="M3.93553 16.499V14.6682H1.96777V16.499V18.3334H3.93553V16.499Z" fill="#1D1D1B"/>
<path d="M15.7348 12.8337H13.7671V14.6645H15.7348V12.8337Z" fill="#1D1D1B"/>
<path d="M5.89968 12.8337V11.0029H3.93555V12.8337V14.6681H5.89968V12.8337Z" fill="#1D1D1B"/>
<path d="M19.6667 12.8337V11.0029H21.6345H23.6023H25.57H27.5341H29.5019H31.4696V12.8337H33.4374H35.4015V11.0029H33.4374V9.16846H31.4696H29.5019H27.5341H25.57H23.6023H21.6345H19.6667H17.7026V11.0029H15.7349V12.8337H17.7026H19.6667Z" fill="#1D1D1B"/>
<path d="M7.86717 9.16846H5.89941V11.0029H7.86717V9.16846Z" fill="#1D1D1B"/>
<path d="M9.83494 7.33398H7.86719V9.16478H9.83494V7.33398Z" fill="#1D1D1B"/>
<path d="M11.8027 5.49976H9.83496V7.33418H11.8027V5.49976Z" fill="#1D1D1B"/>
<path d="M13.7671 3.66895H11.7993V5.50336H13.7671V3.66895Z" fill="#1D1D1B"/>
<path d="M17.7026 3.66889V1.83447H15.7348H13.7671V3.66889H15.7348H17.7026Z" fill="#1D1D1B"/>
<path d="M21.6345 1.83442H23.6023H25.57H27.5342H29.5019H31.4697H33.4374V0H31.4697H29.5019H27.5342H25.57H23.6023H21.6345H19.6668H17.7026V1.83442H19.6668H21.6345Z" fill="#1D1D1B"/>
<path d="M53.1003 14.6682H51.1326V16.499H49.1685V18.3334V20.1679H51.1326V18.3334H53.1003H55.0681V16.499V14.6682H53.1003Z" fill="white"/>
<path d="M51.1326 9.16846H49.1684H47.2007H45.2329V11.0029H47.2007V12.8337H49.1684V11.0029H51.1326H53.1003V9.16846H51.1326Z" fill="white"/>
<path d="M27.5341 42.17H25.57H23.6022H21.6345V40.332H19.6667H17.7026V38.5012H15.7348V36.6667H13.7671V38.5012V40.332H15.7348V42.17H17.7026H19.6667V44.0008H21.6345H23.6022H25.57H27.5341H29.5019H31.4696V42.17H29.5019H27.5341Z" fill="white"/>
<path d="M31.4697 40.3318V42.1698H33.4375H35.4016V40.3318H33.4375H31.4697Z" fill="white"/>
<path d="M37.3691 38.501H35.4014V40.3318H37.3691V38.501Z" fill="white"/>
<path d="M13.7671 33.0015H11.7993V34.8359V36.6667H13.7671V34.8359V33.0015Z" fill="white"/>
<path d="M11.7991 29.3327V27.5019V25.6675H9.83496V27.5019V29.3327V31.1671V33.0015H11.7991V31.1671V29.3327Z" fill="white"/>
<path d="M11.8027 22.0022H9.83496V23.833H11.8027V22.0022Z" fill="white"/>
</svg>
