<svg width="30" height="30" viewBox="0 0 30 30" fill="none" xmlns="http://www.w3.org/2000/svg">
<path fill-rule="evenodd" clip-rule="evenodd" d="M26 1H4V3H2V5H0V25H2V27H4V29H26V27H28V25H30V5H28V3H26V1ZM26 3V5H28V25H26V27H4V25H2V5H4V3H26Z" fill="#0DB7A2"/>
<path d="M11 7V5H19V7H16V11H19V7H21V9H23V11H21V13H16V17H21V19H23V21H21V23H19V19H16V23H19V25H11V23H14V19H11V23H9V21H7V19H9V17H14V13H9V11H7V9H9V7H11V11H14V7H11Z" fill="#0DB7A2"/>
<path d="M7 11V19H5V11H7Z" fill="#0DB7A2"/>
<path d="M23 19H25V11H23V19Z" fill="#0DB7A2"/>
</svg>
