<svg enable-background="new 0 0 57 70" viewBox="0 0 57 70" xmlns="http://www.w3.org/2000/svg"><g fill="#fa00ff"><path d="m4.7 23.3h4.7v9.3h-4.7z"/><path d="m9.3 14h4.7v9.3h-4.7z"/><path d="m23.3 28h4.7v4.7h-4.7z"/><path d="m28 32.7h9.3v4.7h-9.3z"/><path d="m18.7 4.7h4.7v4.7h-4.7z"/><path d="m14 0h4.7v4.7h-4.7z"/><path d="m14 9.3h4.7v4.7h-4.7z"/><path d="m46.7 25.7h4.7v11.7h-4.7z"/><path d="m42 21h4.7v4.7h-4.7z"/><path d="m42 56h4.7v4.7h-4.7z"/><path d="m9.3 56h4.7v4.7h-4.7z"/><path d="m35 60.7h7v4.7h-7z"/><path d="m14 60.7h7v4.7h-7z"/><path d="m21 65.3h14v4.7h-14z"/><path d="m46.7 46.7h4.7v9.3h-4.7z"/><path d="m51.3 37.3h4.7v9.3h-4.7z"/><path d="m37.3 16.3h4.7v4.7h-4.7z"/><path d="m37.3 25.7h4.7v7h-4.7z"/><path d="m23.3 9.3h4.7v9.3h-4.7z"/><path d="m0 32.7h4.7v14h-4.7z"/><path d="m18.7 18.7h4.7v9.3h-4.7z"/><path d="m4.7 46.7h4.7v9.3h-4.7z"/></g></svg>