<svg fill="none" height="28" viewBox="0 0 30 28" width="30" xmlns="http://www.w3.org/2000/svg"><g fill="#0db7a2"><path d="m2 26h8v2h-8z"/><path d="m20 26h8v2h-8z"/><path d="m30 12v14h-2v-14z"/><path d="m2 12v14h-2l.00000057-14z"/><path d="m2 10h2v2h-2z"/><path d="m26 10h2v2h-2z"/><path d="m4 8h2v2h-2z"/><path d="m24 8h2v2h-2z"/><path d="m6 6h2v2h-2z"/><path d="m22 6h2v2h-2z"/><path d="m8 4h2v2h-2z"/><path d="m20 4h2v2h-2z"/><path d="m10 2h2v2h-2z"/><path d="m10 16h2v10h-2z"/><path d="m18 2h2v2h-2z"/><path d="m14 12h2v2h-2z"/><path d="m18 16h2v10h-2z"/><path d="m12 0h6v2h-6z"/><path d="m12 14h2v2h-2z"/><path d="m16 14h2v2h-2z"/></g></svg>