<svg fill="none" height="35" viewBox="0 0 324 35" width="324" xmlns="http://www.w3.org/2000/svg" xmlns:xlink="http://www.w3.org/1999/xlink"><clipPath id="a"><path d="m0 2.6582h126.709v32.3418h-126.709z"/></clipPath><g clip-path="url(#a)"><path d="m10.8236 18.8291h-10.8236l1.6276-1.617-1.6276-1.6171h10.8236z" fill="#c1272d"/><path d="m57.5356 18.8291h-48.82808v-16.1709h40.69008l8.138 8.0854v3.2342z" fill="#1bdfcb"/><path d="m86.0189 35h40.6901v-8.0855l-8.093-8.0854h-40.7351v8.0854z" fill="#0db7a2"/><path d="m110.433 18.8291h-48.8285v-8.0855-8.0854h40.6905l8.138 8.0854v3.2342z" fill="#1bdfcb"/><path d="m33.0404 35h40.7714l-.0814-8.0855v-8.0854h-48.8281v8.0854z" fill="#0db7a2"/><g fill="#1c1c1c"><path d="m17.4969 10.7437h-7.1615v1.617h7.1615z"/><path d="m26.4486 10.7437h-7.1615v1.617h7.1615z"/></g></g><g fill="#fa00ff"><path d="m134.684 34.8239h21.421v-2.659h-16.082v-2.6804h-2.659v2.659h-2.68zm5.36-5.3608h2.659v-2.659h-2.659zm2.681-2.6805h2.659v-2.6589h-2.659zm2.68-2.6804h2.659v-2.6589h-2.659zm2.681-2.6804h2.659v-2.6589h-2.659zm2.68-2.6804h2.659v-2.6589h-2.659zm2.68-2.6804h2.659v-8.01977h-2.659zm-18.762-8.04122h2.659v-2.65896h-2.659zm16.082 0h2.659v-2.65896h-2.659zm-2.68-2.68041h2.659v-2.65896h-13.381v2.65896z"/><path d="m166.741 34.8239h2.659v-5.3394h-2.659zm2.681-5.3608h2.659v-5.3394h-2.659zm2.68-5.3609h2.659v-5.3393h-2.659zm2.681-5.3608h2.658v-5.3394h-2.658zm2.68-5.3608h2.659v-5.33937h-2.659zm2.68-5.36082h2.659v-5.33937h-21.422v2.65896h18.763z"/><path d="m201.372 34.8239h2.659l.022-18.7629h2.659v-2.659h-2.681v-2.6804h-2.659zm18.763 0h2.659v-18.7414h-2.659zm-2.68-18.7629h2.659v-2.659h-2.659zm-10.722-2.6804h10.7v-2.659h-10.7z"/><path d="m233.43 34.8239h13.38v-2.659h-13.38zm-2.681-2.6804h2.659v-2.659h-2.659zm-2.68-2.6804h2.659l.021-5.3609h18.742v-8.0197h-2.659v5.3393l-16.104.0215v-5.3608h-2.659zm18.763 2.6804h2.659v-2.659h-2.659zm-2.681-16.0825h2.659v-2.659h-2.659zm-13.402 0h2.659v-2.659h-2.659zm2.681-2.6804h10.7v-2.659h-10.7z"/><path d="m254.766 34.8239h2.659l.021-18.7629h2.659v-2.659h-2.68v-2.6804h-2.659zm5.361-21.4433h8.02v-2.659h-8.02z"/><path d="m278.782 34.8239h10.701v-2.659h-10.701zm13.402 0h2.659v-34.8239h-2.659v13.3806l-2.68.0214v2.659h2.68v13.4021l-2.68.0214v2.659h2.68zm-16.082-2.6804h2.659v-2.659h-2.659zm-2.68-2.6804h2.659v-13.3806h-2.659zm2.68-13.4021h2.659v-2.659h-2.659zm2.68-2.6804h10.701v-2.659h-10.701z"/><path d="m302.799 34.8239h13.38v-2.659h-13.38zm-2.681-2.6804h2.659v-2.659h-2.659zm16.083 0h2.659v-8.0198h-2.659zm-13.402-8.0413h13.38v-2.6589h-13.38zm-2.681-2.6804h2.659v-8.0198h-2.659zm2.681-8.0412h13.38v-2.659h-13.38zm13.402 2.6804h2.659v-2.659h-2.659z"/></g><path d="m138.897 34.8239h21.422v-2.659h-16.082v-2.6804h-2.659v2.659h-2.681zm5.361-5.3608h2.659v-2.659h-2.659zm2.681-2.6805h2.659v-2.6589h-2.659zm2.68-2.6804h2.659v-2.6589h-2.659zm2.681-2.6804h2.658v-2.6589h-2.658zm2.68-2.6804h2.659v-2.6589h-2.659zm2.68-2.6804h2.659v-8.01977h-2.659zm-18.763-8.04122h2.659v-2.65896h-2.659zm16.083 0h2.659v-2.65896h-2.659zm-2.68-2.68041h2.658v-2.65896h-13.38v2.65896z" fill="#0ff"/><path d="m170.955 34.8239h2.659v-5.3394h-2.659zm2.681-5.3608h2.659v-5.3394h-2.659zm2.68-5.3609h2.659v-5.3393h-2.659zm2.68-5.3608h2.659v-5.3394h-2.659zm2.681-5.3608h2.659v-5.33937h-2.659zm2.68-5.36082h2.659v-5.33937h-21.422v2.65896h18.763z" fill="#0ff"/><path d="m205.586 34.8239h2.659l.021-18.7629h2.659v-2.659h-2.68v-2.6804h-2.659zm18.763 0h2.659v-18.7414h-2.659zm-2.681-18.7629h2.659v-2.659h-2.659zm-10.721-2.6804h10.7v-2.659h-10.7z" fill="#0ff"/><path d="m237.644 34.8239h13.38v-2.659h-13.38zm-2.681-2.6804h2.659v-2.659h-2.659zm-2.68-2.6804h2.659l.021-5.3609h18.742v-8.0197h-2.659v5.3393l-16.104.0215v-5.3608h-2.659zm18.763 2.6804h2.659v-2.659h-2.659zm-2.681-16.0825h2.659v-2.659h-2.659zm-13.402 0h2.659v-2.659h-2.659zm2.681-2.6804h10.7v-2.659h-10.7z" fill="#0ff"/><path d="m258.98 34.8239h2.659l.021-18.7629h2.659v-2.659h-2.68v-2.6804h-2.659zm5.361-21.4433h8.019v-2.659h-8.019z" fill="#0ff"/><path d="m282.996 34.8239h10.7v-2.659h-10.7zm13.402 0h2.659v-34.8239h-2.659v13.3806l-2.68.0214v2.659h2.68v13.4021l-2.68.0214v2.659h2.68zm-16.082-2.6804h2.659v-2.659h-2.659zm-2.681-2.6804h2.659v-13.3806h-2.659zm2.681-13.4021h2.659v-2.659h-2.659zm2.68-2.6804h10.7v-2.659h-10.7z" fill="#0ff"/><path d="m307.013 34.8239h13.38v-2.659h-13.38zm-2.681-2.6804h2.659v-2.659h-2.659zm16.083 0h2.659v-8.0198h-2.659zm-13.402-8.0413h13.38v-2.6589h-13.38zm-2.681-2.6804h2.659v-8.0198h-2.659zm2.681-8.0412h13.38v-2.659h-13.38zm13.402 2.6804h2.659v-2.659h-2.659z" fill="#0ff"/><path d="m136.999 34.8239h21.422v-2.659h-16.083v-2.6804h-2.659v2.659h-2.68zm5.361-5.3608h2.659v-2.659h-2.659zm2.68-2.6805h2.659v-2.6589h-2.659zm2.681-2.6804h2.659v-2.6589h-2.659zm2.68-2.6804h2.659v-2.6589h-2.659zm2.68-2.6804h2.659v-2.6589h-2.659zm2.681-2.6804h2.659v-8.01977h-2.659zm-18.763-8.04122h2.659v-2.65896h-2.659zm16.082 0h2.659v-2.65896h-2.659zm-2.68-2.68041h2.659v-2.65896h-13.381v2.65896z" fill="#043bff"/><path d="m169.057 34.8239h2.659v-5.3394h-2.659zm2.68-5.3608h2.659v-5.3394h-2.659zm2.681-5.3609h2.658v-5.3393h-2.658zm2.68-5.3608h2.659v-5.3394h-2.659zm2.68-5.3608h2.659v-5.33937h-2.659zm2.681-5.36082h2.659v-5.33937h-21.422v2.65896h18.763z" fill="#043bff"/><path d="m203.688 34.8239h2.659l.021-18.7629h2.659v-2.659h-2.68v-2.6804h-2.659zm18.762 0h2.659v-18.7414h-2.659zm-2.68-18.7629h2.659v-2.659h-2.659zm-10.722-2.6804h10.701v-2.659h-10.701z" fill="#043bff"/><path d="m235.745 34.8239h13.381v-2.659h-13.381zm-2.68-2.6804h2.659v-2.659h-2.659zm-2.681-2.6804h2.659l.022-5.3609h18.741v-8.0197h-2.659v5.3393l-16.104.0215v-5.3608h-2.659zm18.763 2.6804h2.659v-2.659h-2.659zm-2.68-16.0825h2.659v-2.659h-2.659zm-13.402 0h2.659v-2.659h-2.659zm2.68-2.6804h10.7v-2.659h-10.7z" fill="#043bff"/><path d="m257.081 34.8239h2.659l.022-18.7629h2.659v-2.659h-2.681v-2.6804h-2.659zm5.361-21.4433h8.02v-2.659h-8.02z" fill="#043bff"/><path d="m281.098 34.8239h10.7v-2.659h-10.7zm13.402 0h2.659v-34.8239h-2.659v13.3806l-2.681.0214v2.659h2.681v13.4021l-2.681.0214v2.659h2.681zm-16.083-2.6804h2.659v-2.659h-2.659zm-2.68-2.6804h2.659v-13.3806h-2.659zm2.68-13.4021h2.659v-2.659h-2.659zm2.681-2.6804h10.7v-2.659h-10.7z" fill="#043bff"/><path d="m305.114 34.8239h13.381v-2.659h-13.381zm-2.68-2.6804h2.659v-2.659h-2.659zm16.082 0h2.659v-8.0198h-2.659zm-13.402-8.0413h13.381v-2.6589h-13.381zm-2.68-2.6804h2.659v-8.0198h-2.659zm2.68-8.0412h13.381v-2.659h-13.381zm13.402 2.6804h2.659v-2.659h-2.659z" fill="#043bff"/></svg>