<svg fill="none" height="28" viewBox="0 0 30 28" width="30" xmlns="http://www.w3.org/2000/svg"><g fill="#0db7a2"><path d="m22 17v-2h2v2z"/><path d="m20 19v-2h2v2z"/><path d="m18 21v-2h2v2z"/><path d="m12 21h6v2h-6z"/><path d="m10 19h2v2h-2z"/><path d="m8 17h2v2h-2z"/><path d="m8 17v-2h-2v2z"/><path d="m21 4v2h-7v-2z"/><path d="m21 10v-2h-12v2z"/><path d="m21 14h-12v-2h12z"/><path clip-rule="evenodd" d="m24 2v-2h-18v2h-2v4h-2v2h-2v18h2v2h26v-2h2v-18h-2v-2h-2v-4zm0 0h-18v13h-2v-2h-2v13h26v-13h-2v2h-2zm2 6h2v3h-2zm-24 0v3h2v-3z" fill-rule="evenodd"/></g></svg>