<svg fill="none" height="28" viewBox="0 0 30 28" width="30" xmlns="http://www.w3.org/2000/svg"><g fill="#0db7a2"><path d="m4 0h22v2h-22z"/><path d="m2 4v-2h2v2z"/><path d="m2 24h-2v-20h2z"/><path d="m4 26h-2v-2h2z"/><path d="m26 26v2h-22v-2z"/><path d="m28 24v2h-2v-2z"/><path d="m28 4h2v20h-2z"/><path d="m28 4v-2h-2v2z"/><path d="m7 5h3v1h1v1h1v1h1v12h-1v1h-1v1h-1v1h-3v-1h-1v-1h-1v-1h-1v-12h1v-1h1v-1h1z"/><path d="m17 5h2v1h1v1h1v14h-1v1h-1v1h-2v-1h-1v-1h-1v-14h1v-1h1z"/><path d="m24 5h1v1h1v16h-1v1h-1v-1h-1v-16h1z"/></g></svg>