<svg fill="none" height="31" viewBox="0 0 43 31" width="43" xmlns="http://www.w3.org/2000/svg">
    <g fill="#fa00ff">
        <path d="m19.1111 17.8846v-10.73075h2.3889v10.73075z"/>
        <path d="m35.8333 17.8846v2.3846h-14.3333v-2.3846z"/>
        <path d="m35.8333 7.15385h2.3889v10.73075h-2.3889z"/>
        <path d="m35.8333 7.15385v-2.38462h-14.3333v2.38462z"/>
        <path d="m37.0278 23.8462h-8.3611v2.3846h8.3611z"/>
        <path d="m26.2778 23.8462h-2.3889v2.3846h2.3889z"/>
        <path clip-rule="evenodd"
              d="m4.77778 2.38462h-2.38889v2.38461h-2.38889v21.46157h2.38889v2.3846h2.38889v2.3846h9.55552v-2.3846h2.3889v2.3846h23.8889v-2.3846h2.3889v-23.84617h-2.3889v-2.38461h-2.3889v-2.38462h-19.1111v2.38462h-2.3889v-2.38462h-11.94442zm0 0h11.94442v2.38461h-2.3889v5.96157h-4.77774v2.3846h-2.38889v2.3846h2.38889v2.3846h-2.38889v2.3846h2.38889v2.3846h4.77774v5.9616h-9.55552v-2.3846h-2.38889v-21.46157h2.38889zm14.33332 0v2.38461h-2.3889v23.84617h23.8889v-23.84617h-2.3889v-2.38461zm-9.55554 17.88458v-2.3846h4.77774v2.3846zm0-4.7692h4.77774v-2.3846h-4.77774z"
              fill-rule="evenodd"/>
    </g>
</svg>