<svg width="47" height="66" viewBox="0 0 47 66" fill="none" xmlns="http://www.w3.org/2000/svg">
<path d="M46.9999 9.56492V37.6H28.2656V0L37.4684 0L46.9999 9.56492Z" fill="#FFBCC1"/>
<path d="M0 9.56491L0 37.6H18.7343V0L9.53147 0L0 9.56491Z" fill="#FFBCC1"/>
<path d="M47 56.4001L37.4685 65.965H9.53147L0 56.4001L0 28.365H47V56.4001Z" fill="#FFBCC1"/>
<path d="M46.9998 37.6001H9.53125V47.165H46.9998V37.6001Z" fill="#E8FFEC"/>
<path d="M47.0002 37.6001H37.4688V47.165H47.0002V37.6001Z" fill="#1A1A1A"/>
<path d="M28.2658 37.6001H18.7344V47.165H28.2658V37.6001Z" fill="#1A1A1A"/>
<path d="M19.0627 0L9.53125 0V28.3649H19.0627V0Z" fill="#FF97A4"/>
<path d="M37.7971 0L28.2656 0V28.3649H37.7971V0Z" fill="#FF97A4"/>
<path d="M37.4685 65.9648H9.53147L0 56.3999H47L37.4685 65.9648Z" fill="#FF97A4"/>
</svg>
