<svg fill="none" height="32" viewBox="0 0 43 32" width="43" xmlns="http://www.w3.org/2000/svg">
    <g fill="#00a3ff">
        <path d="m3.58333 0v17.9167h2.38889v-15.52781h2.38889v15.52781h2.38889v-17.9167z"/>
        <path d="m3.58333 23.8889h2.38889v3.5833h-2.38889z"/>
        <path d="m9.55556 27.4722v-3.5833h-2.38889v3.5833z"/>
        <path d="m10.75 23.8889h2.3889v3.5833h-2.3889z"/>
        <path d="m16.7222 27.4722v-3.5833h-2.3889v3.5833z"/>
        <path d="m17.9167 23.8889h2.3889v3.5833h-2.3889z"/>
        <path d="m21.5 23.8889v3.5833h2.3889v-3.5833z"/>
        <path clip-rule="evenodd"
              d="m40.6111 20.3056h-38.22221v2.3888h-2.38889v5.9723h2.38889v2.3889h38.22221v-2.3889h2.3889v-5.9723h-2.3889zm0 2.3888v5.9723h-38.22221v-5.9723z"
              fill-rule="evenodd"/>
        <path d="m20.3056 8.36111v9.55559h-2.3889v-7.1667h-2.3889v7.1667h-2.3889v-9.55559z"/>
        <path d="m22.6944 3.58333v14.33337h2.3889v-11.94448h2.3889v11.94448h2.3889v-14.33337z"/>
        <path d="m39.4167 0v17.9167h-2.3889v-15.52781h-2.3889v15.52781h-2.3889v-17.9167z"/>
    </g>
</svg>