<svg fill="none" height="31" viewBox="0 0 43 31" width="43" xmlns="http://www.w3.org/2000/svg">
    <g fill="#1bdfcb">
        <path d="m22.6944 16.6923v-2.3846h2.3889v2.3846z"/>
        <path d="m27.4722 21.4615v-2.3846h2.3889v-2.3846h-2.3889v2.3846h-2.3889v2.3846h-7.1666v-2.3846h-2.3889v-2.3846h-2.3889v2.3846h2.3889v2.3846h2.3889v2.3847h7.1666v-2.3847z"/>
        <path d="m17.9167 14.3077h2.3889v2.3846h-2.3889z"/>
        <path clip-rule="evenodd"
              d="m28.6667 0h-2.3889v2.38462h-2.3889v2.38461h-4.7778v-2.38461h-2.3889v-2.38462h-2.3889v2.38462h2.3889v2.38461h2.3889v2.38462h-14.33332v2.38461h-2.38889v2.38464h-2.38889v14.3077h2.38889v2.3846h2.38889v2.3846h33.44442v-2.3846h2.3889v-2.3846h2.3889v-14.3077h-2.3889v-2.38464h-2.3889v-2.38461h-14.3333v-2.38462h2.3889v-2.38461h2.3889zm-10.75 9.53846h2.3889v2.38464h2.3888v-2.38464h2.3889v2.38464h2.3889v-2.38464h2.3889v2.38464h2.3889v-2.38464h5.9722v2.38464h2.3889v2.3846h-2.3889v2.3846h2.3889v2.3846h-2.3889v2.3846h2.3889v2.3847h-2.3889v4.7692h-5.9722v-2.3846h-2.3889v2.3846h-2.3889v-2.3846h-2.3889v2.3846h-2.3889v-2.3846h-2.3888v2.3846h-2.3889v-2.3846h-2.3889v2.3846h-2.3889v-2.3846h-2.3889v2.3846h-5.97222v-4.7692h-2.38889v-2.3847h2.38889v-2.3846h-2.38889v-2.3846h2.38889v-2.3846h-2.38889v-2.3846h2.38889v-2.38464h5.97222v2.38464h2.3889v-2.38464h2.3889v2.38464h2.3889z"
              fill-rule="evenodd"/>
    </g>
</svg>