<svg fill="none" height="72" viewBox="0 0 194 72" width="194" xmlns="http://www.w3.org/2000/svg"><path d="m187.084.00035679-187.08394507 32.08004321 1.37378507 8.0117 7.66243-1.3139 2.69853 15.7372 8.107-1.3902 1.3247 7.7256 15.6418-2.6822 1.3738 8.0117 39.1047-6.7054-1.3737-8.0117 15.7369-2.6984-2.6494-15.4511 15.6094-2.6766 2.65 15.451 15.642-2.6821 1.374 8.0116 39.104-6.7053-1.374-8.0117 15.737-2.6985-1.324-7.7255 7.534-1.292-2.698-15.73719 7.203-1.23539z" fill="#000"/><g clip-rule="evenodd" fill="#fff" fill-rule="evenodd"><path d="m63.7336 29.4471 7.9765-1.3678 1.3678 7.9766-7.9766 1.3678zm23.9304-4.1034-7.9766 1.3678 1.3678 7.9766 7.9765-1.3678zm-6.6098 9.345-7.9765 1.3677 1.3676 7.9758-7.9762 1.3677-1.3677-7.9758-7.9765 1.3677 1.3676 7.9757-7.9765 1.3678 1.3677 7.9766 7.9766-1.3678-1.3676-7.9757 7.9764-1.3678 1.3676 7.9759 7.9766-1.3678-1.3676-7.9758 7.9763-1.3677z"/><path d="m174.053 10.2419-7.976 1.3678 1.367 7.9763-7.976 1.3678 1.368 7.9765 7.976-1.3677-1.367-7.9764 7.976-1.3677zm-15.954 2.7358-7.976 1.3678 1.368 7.9765 7.976-1.3677zm-14.585 10.7119 7.976-1.3678 1.368 7.9766-7.976 1.3677zm17.369 5.5209-7.976 1.3677 1.367 7.9766 7.977-1.3677zm-15.953 2.7356-7.977 1.3677 1.368 7.9766 7.977-1.3677z"/></g></svg>